/* XPM */
static char *result[] = {
/* columns rows colors chars-per-pixel */
"24 24 2 1 ",
". c white",
"  c black",
/* pixels */
"                        ",
" ...................... ",
" ...................... ",
" ...................... ",
" ...................... ",
" ...................... ",
" ...................... ",
" ...................... ",
" ...................... ",
" ...................... ",
" ...................... ",
" ...................... ",
" ...................... ",
" ...................... ",
" ...................... ",
" ...................... ",
" ...................... ",
" ...................... ",
" ...................... ",
" ...................... ",
" ...................... ",
" ...................... ",
" ...................... ",
"                        "
};
