/* XPM */
static char *_610548c95bf4bffbb9a6e89b8276499T79yHjCfQs6jgTkt[] = {
/* columns rows colors chars-per-pixel */
"63 71 244 2 ",
"   c None",
".  c #010101",
"X  c #090B0A",
"o  c #171919",
"O  c #261D0E",
"+  c #38291A",
"@  c #362B13",
"#  c #0F1C22",
"$  c #282523",
"%  c #362C20",
"&  c #363430",
"*  c #002835",
"=  c #563408",
"-  c #45331C",
";  c #4F3312",
":  c #653A08",
">  c #69280A",
",  c #493B2C",
"<  c #591E13",
"1  c #534B13",
"2  c #784508",
"3  c #784912",
"4  c #754C12",
"5  c #6C6A11",
"6  c #554E2F",
"7  c #6A5733",
"8  c #6B6726",
"9  c #7B7629",
"0  c #666336",
"q  c #797739",
"w  c #736D26",
"e  c #003648",
"r  c #08556F",
"t  c #2D5762",
"y  c #5B5847",
"u  c #5E5C59",
"i  c #464545",
"p  c #665550",
"a  c #686747",
"s  c #7A7744",
"d  c #696759",
"f  c #75735A",
"g  c #486876",
"h  c #696969",
"j  c #7A786B",
"k  c #7A7977",
"l  c #6F6D6F",
"z  c #98382E",
"x  c #A62C19",
"c  c #CE3A24",
"v  c #844A05",
"b  c #854D0A",
"n  c #894C06",
"m  c #8C520A",
"M  c #9D5B07",
"N  c #9E5A08",
"B  c #945408",
"V  c #865B19",
"C  c #8D5113",
"Z  c #A35D07",
"A  c #A15C08",
"S  c #A85F07",
"D  c #B05C0B",
"F  c #996416",
"G  c #8D611C",
"H  c #A36107",
"J  c #AA6507",
"K  c #A66B18",
"L  c #B7791C",
"P  c #AD7218",
"I  c #815B20",
"U  c #946926",
"Y  c #847B29",
"T  c #8D6E33",
"R  c #AB7621",
"E  c #F54731",
"W  c #DE5822",
"Q  c #94655D",
"!  c #7D8621",
"~  c #8C8B00",
"^  c #929206",
"/  c #959509",
"(  c #9C9D16",
")  c #B6871A",
"_  c #9DAC1D",
"`  c #A7A418",
"'  c #B2AD1C",
"]  c #B7B21C",
"[  c #A7A00B",
"{  c #8A842B",
"}  c #8B8637",
"|  c #938E33",
" . c #989535",
".. c #9A9427",
"X. c #BE8221",
"o. c #A39B2B",
"O. c #A39D35",
"+. c #A09C3F",
"@. c #B78235",
"#. c #A9A927",
"$. c #A7BA24",
"%. c #BBB522",
"&. c #B9B628",
"*. c #ACA637",
"=. c #B3AC38",
"-. c #B4B234",
";. c #BCB53E",
":. c #B9B83B",
">. c #B6AB2D",
",. c #9EA030",
"<. c #C5851E",
"1. c #CB8A21",
"2. c #DB9522",
"3. c #D79322",
"4. c #D38F21",
"5. c #E1982B",
"6. c #C4BD27",
"7. c #C3BB38",
"8. c #D6B837",
"9. c #B6C52C",
"0. c #B5C52A",
"q. c #CAC42A",
"w. c #C8C737",
"e. c #D5CC34",
"r. c #D3CB3B",
"t. c #DAD53A",
"y. c #D2CD2E",
"u. c #E4DA3C",
"i. c #E2D837",
"p. c #E6E33A",
"a. c #8A864A",
"s. c #88855A",
"d. c #979350",
"f. c #B9B645",
"g. c #B9B75B",
"h. c #ACAA4A",
"j. c #8F8975",
"k. c #BCBB65",
"l. c #B8B770",
"z. c #9CA446",
"x. c #C4BD41",
"c. c #C3AB5F",
"v. c #EFB249",
"b. c #C2B668",
"n. c #E29F5E",
"m. c #BEC145",
"M. c #C9C848",
"N. c #D4CA45",
"B. c #DAD743",
"V. c #C9CC54",
"C. c #CED15A",
"Z. c #CDD057",
"A. c #D2D55C",
"S. c #F5C94B",
"D. c #E4DB47",
"F. c #F7D84E",
"G. c #FFDF51",
"H. c #ECE44C",
"J. c #EBE64A",
"K. c #F5EB4C",
"L. c #F4E949",
"P. c #FDF34E",
"I. c #FDF046",
"U. c #FCEC53",
"Y. c #F7E951",
"T. c #FFF454",
"R. c #FFFB55",
"E. c #FFFC59",
"W. c #FCF556",
"Q. c #EEE850",
"!. c #D5D965",
"~. c #C6C47C",
"^. c #D7DA72",
"/. c #DCE171",
"(. c #E6EB7C",
"). c #E8ED7F",
"_. c #E1E673",
"`. c #016E94",
"'. c #0C6F90",
"]. c #2A6C84",
"[. c #007BA6",
"{. c #007AB0",
"}. c #005D88",
"|. c #6C7D84",
" X c #476F8B",
".X c #837F80",
"XX c #0086B6",
"oX c #72868D",
"OX c #0094CA",
"+X c #0096CD",
"@X c #00AFED",
"#X c #599ECD",
"$X c #888786",
"%X c #99968A",
"&X c #8A8E94",
"*X c #949494",
"=X c #9D9C9C",
"-X c #989799",
";X c #908F8F",
":X c #A49D8E",
">X c #ACA894",
",X c #81AAB3",
"<X c #A5A5A5",
"1X c #ADACAC",
"2X c #A8A7AB",
"3X c #B3B3B3",
"4X c #BBBBB9",
"5X c #B5B5AE",
"6X c #9CA69A",
"7X c #C0BFB5",
"8X c #CAC885",
"9X c #D3D095",
"0X c #E9EE81",
"qX c #ECF184",
"wX c #F3F885",
"eX c #DDDDB6",
"rX c #D4D3AB",
"tX c #E3E2BE",
"yX c #E0DFBA",
"uX c #89B9D4",
"iX c #BCBDC7",
"pX c #94D1F3",
"aX c #A3E4FF",
"sX c #9FCEE1",
"dX c #C4C4C4",
"fX c #CACACB",
"gX c #CCCCD4",
"hX c #DDDCDD",
"jX c #D3D4D6",
"kX c #D1D0D2",
"lX c #EADAD4",
"zX c #E6E5C7",
"xX c #ECECD6",
"cX c #F3F2DE",
"vX c #DBDBE5",
"bX c #E8E8EA",
"nX c #F3E8E7",
"mX c #F6F4EA",
"MX c #F5F5F5",
"NX c #FBFAF4",
"BX c #FFFFFF",
"VX c #F5F4FC",
"CX c #EDEAF4",
"ZX c #96C1B2",
/* pixels */
"                                      BXBX        BXBX          BXBX          BXBXBX      BXBX        BX                      ",
"                                BXBXBXBXBXBXBXVXBXBXBXBXBXBXBXBXBXBXBXNXBXBXBXBXBXBXBXBXBXBXBXNXBXBXBXBXBXBX                  ",
"                              BXNXBXrX8X8XzXBXBXrX8X8X9XmXBXmX9X~.8X8XzXBXBXxX~.b.k.yXNXrXg.k.9XxXyX8X~.rXBXBX                ",
"                              BXNXg.0.e.6.` f.| q.r.,.p.{ k.=.e.u.7.t...l.8Xo.u.J.t.%.:.q.t.u.6.' %.t.u.` zXBX                ",
"                            BXBX~.y.E.Q.K.K.P.Y *.| 9 f.8 e.K.W.E.{ N.{ o.>.{ E.T.R.T.T.W.E.T.R.W.T.E.U.&.k.BXBX              ",
"                            BXNX-.P.w.$.0.W.t.0 *X3X4X=Xa r.E.R.B.0 k j.j.h w P.T.T.T.T.T.J.$.J.W.W.W.6.!.-.NXBX              ",
"                            BXNX-.r.$.$.0.-.j jXBXBXBXBXbXd D.w.f kXBXBXBXBX2X} R.T.T.T.W.B.0.U.W.U.6.V.0X#.NXBX              ",
"                            BXNX#.9.$.0._ j.VXBXNXMXBXBXBXgX8 %XVXNXNXBXBXBXNX$X7.E.T.T.T.T.U.T.W.e.C.qX(.*.BXBXBX            ",
"                          BXBXb.r.B.9.y.s CXBXkX X].|.nXBXCXl nXoXg g iXBXBXBXvX} R.T.T.T.T.T.W.U.;.0X(.0X-.8XmXBX            ",
"                          BXzX6.E.E.N.{ -XBXvXt +X@X`.=XBX1XdX|.XX@X+Xg NXBXBXCXa.T.T.T.T.T.T.T.K.w.0X(.0X_.9.~.BXBX          ",
"                        BXBXk.J.R.9.9 { a vXoXXXr e +XoXBX*X5X'.XX* XX'.nXNXBXCXa.P.T.T.T.T.T.E.u.M.0X(.0X0X).#.mXBX          ",
"                        BXBX-.T.J.! Y.E.B.0 ].[.. . OXoXNX=X&XXX# . '.'.nXBXBXvX .R.T.T.T.W.T.u.:.!.#.#.V.0XqX-.xXBX          ",
"                        BXNX-.Y.v.Y Y.R.R.>.r [.. e XX<XVX-XoXOX. . XX XNXBXBX1X;.E.T.T.T.T.u.:._.#.~ ~ ( _.qX:.yXBXBX        ",
"                        BXBXc.5.v.R f.E.W.R.{ }.r XXr nXMX*X|.OX`.`.`.<XNXlXn.n.v.Y.T.U.T.T.:.0X!.^ ^ / / /.qX^.h.NXBXBX      ",
"                        BXmXn.v.Y.G.*.-.R.R.P.q {.`.5XBX4Xy 4Xr @XXXl BXmXn.I.S.S.S.Y.P.T.K.w.0XV.^ ^ ^ ( _.(.qXV.g.NXBX      ",
"                      BXBXc.S.W.Y.F.H.T { Y.E.T.9 u VXrXf.>.$X4XoX;XNXBXnXv.R.G.F.F.v.U.T.P.w.0X!.^ ~ ~ m.0X(.0XqX&.xXBX      ",
"                      BXmX) S.E.Q.1 *.U.*.8 x.E.E.f.y 8 T.E.,.;XMXNXBXhX%XN.Q.Y.Y.S.S.v.E.K.9.).).:._ :._.0X(.qXC.#.mXBX      ",
"                      BXeX%.v.F.B.h.9 N.E.H.| 9 =.Y.J.#.D.T.R.7.s s.Q d.B.N.@ 8 D.R.U.v.U.q.!.0X).)._.0X(.(.0Xm.g.xXBXBX      ",
"                      BX9Xe.U.S.W.E.D.w =.E.E.D.O.Y x.E.T.T.T.E.R.P.K.M.{ { N.N.N.R.Y.v.&.C.0X(.(.(.0X(.(.0XV.k.BXBXBX        ",
"          BXBXBXBX    BXeXq.E.T.W.U.R.Q.| 9 *.K.E.E.W.E.E.R.R.Y.M.*.Y  .B.R.R.R.U.v.v.8.A.qX(.(.(.qX0X(.(.(.-.MXBX            ",
"        BXBXdXbXBXBXBXBXxX%.T.T.T.T.W.R.E.s oXf } O.O.O. .d.{ Y ..7.Q.E.T.T.T.T.U.F.U.w.^.(.(.(.(.V.!.(.(._.g.BXBX            ",
"        BXdX9  .f 3XBXBX7X] T.T.U.T.T.T.K.d.BXBXj ( d gXgXiXq R.E.E.R.T.T.T.T.T.T.R.W.y.^.(.(.0XA.~ #.0XqXV.~.BXBXBX          ",
"      BXBXd Q. .B.f.a h 5 t.T.T.T.T.W.T.J.j VXVXj.y.%XNXBXbX| E.T.U.W.W.T.T.T.U.W.W.T.w.(.0X0XqXM.~ ( _.V...7X-X1XBXBX        ",
"      BXhX| x.*X$X} 0 >Xq.R.T.T.T.T.R.K.e.a.s.T +.D.f =X%Xj =.R.T.T.T.W.T.T.T.T.W.U.u.Z.V.V._.wX,.1 j a 1 w ,.J.7.=XBXBX      ",
"      BX<XN.s BXBX2X-X8Xi.R.T.T.T.T.W.U.' i.L.i.] ] 6.r.t.6.%.K.W.T.T.T.T.T.T.T.W.L.C.V.~ ~ V.h.j.jX&Xd ,.x. .} W.} jXBX      ",
"  BXBXBXk D.k BXBX4XdX^.u.W.T.T.T.T.T.T.L.6.' ' y.p.6.6.%.q.U.T.T.T.T.T.T.T.T.T.W.r./.#.~ ^ 5 $XVXBX6 ..q u kXfXq W.d BXBX    ",
"  BXBX*X} Q.q j.BXhXh a.y.R.T.W.J.B.T.T.T.T.T.T.E.T.T.L.K.T.T.T.T.T.T.J.D.W.T.T.T.w.!./ / 5 j BXBXBX=Xd iX<XBXBXj.Q.} kXBX    ",
"BXNX;X;.E.E.Q.9 4XNXBX=Xq.R.T.P.0.$.P.T.T.T.T.T.W.U.T.W.T.T.T.T.T.T.U.9.$.t.T.T.T.w.V./ / 1 vXNXBXBXBXgXk 3XNXbX$X{ Q.k BXBX  ",
"BXBXT Q.E.E.9 O dXBXBXxX&.E.E.R.$.9.T.T.T.T.T.T.T.T.T.T.T.T.T.U.T.T.T.9._ w.R.R.P.w.!./ / 5 a oX*X*Xl h fXBXbXa f.O.T.q kXBX  ",
"BXBXw  .A.m.*.0 MXBXBX8Xt.U.B.Q.Q.K.T.T.T.T.T.T.T.T.T.T.U.T.T.T.T.T.W.J.9.J.T.R.t.A.(.( ~ #.^.m.| { kXBXBXBX=XY E.E.R.U.f BXBX",
"BXBXy Y D. .E.s BXBXNX-.T.w._ y.T.T.T.T.T.T.T.U.T.U.T.T.T.T.T.P.W.W.T.E.R.T.R.u.V.).).!.M./.qX_.=.cXBXBX  BX<X@ =.W.H.*.s BXBX",
"  BXMX<Xd y q *XBXBXNXf.J.0.$.9.T.T.T.T.T.T.T.T.T.T.T.T.T.T.T.T.T.W.T.H.K.T.T.w./.).(.).).(.qXC.~.BXBX    BXhX8 N.O.K.8 h BXBX",
"  BXBXBXBXBXbXBXBXBXBX9Xy.9.$.t.T.T.T.T.T.T.T.T.T.T.W.W.W.T.T.T.T.T.W.0.t.W.E.e.!.0X(.0X0X(.).!.k.BXBX    BXbX{ Y.8  .u bXBX  ",
"        BXBXBXBX  BXBXg.J.J.B.T.T.T.T.T.T.T.T.P.T.T.T.R.W.W.T.T.U.W.T.t.J.R.T.D.C.0X0XC.C.(.0XC.~.BXBX    BXNX=Xk =X1XBXBXBX  ",
"                  BXxX' R.E.T.K.L.P.T.T.L.L.I.P.T.W.T.u.y.q.u.E.E.T.L.L.L.T.E.t.A.qX_.( _ ).qX:.zXBX        BXBXBXBXBXBXBX    ",
"                  BXtX] t.y.] -.#.[ i.q.-.#.) ' e.y.] f.b.9XO.` 6.] =.f.=.%.6.[ M.qX_.^ *.qXM.k.BXBX            BX            ",
"                  BXNXs.h.b.zXMXmX>X8 8XdXf x E D T s.bXBXiX$XrXeXxXBXBXBXxX3X#Xz.Z.qXm.!.!.*.NXBX                            ",
"                  BXBXk VXBXBXBXBXBXgX&X=XCXQ x z bXvX;X*X1XNXBXBXBXBXBXBXBXsXpXZX$.qXqXwXf.9XBXBX                            ",
"                  BXBXy j.j.j.j.:X>X>X:X7X>Xz c z iXkX3X2XjXhXjXjXjXbXbXvXbXZXaXaXz.9.!.qXM.9XBX                              ",
"                  BXvX, V V V V P F V V V > c E c 4 4 G G U U T U T Q T T T a uXaXsX6X .!.!.k.BXBX                            ",
"                  BX4X$ + % + - 1.4 $ $ $ x E E E < $ + % R K % % - + ; <.4 @ 7 uXpXaX1X&.f.8XBX                              ",
"                  BX2XI 3.1.<.<.4.1.X.L L x E E c K F U U X.X.V I I w U 4.V $ v b uXaXpXq 8XNXNX                              ",
"                BXBX$XR 2.3.3.2.3.3.3.2.5.P x x L 2.5.2.2.3.3.2.2.2.2.2.2.P n B = 4 #XsXl BXBXBX                              ",
"                BXBXh V K K F K R K K P L L C G X.<.L L X.<.<.<.L 1.1.1.3.N B B + - 3 d ;XBXBX                                ",
"                  BXfX, 2 B B n n n n v v v v v v v v v b b n n B m n b C : B D B + + < 3XBX                                  ",
"                  BXBXhXy b S Z Z B A Z A A Z Z A A A A M M M M N A N B N N : n Z N - # dXBX                                  ",
"                    BXBXCXp 3 S B = M N N Z A N M M M A M v M M A A A A A A N : 2 A N - jXBX                                  ",
"                      BXBXMXh v : = H A M 2 N Z A A S M : 2 M M B A A A A A A Z v v A 6 VXBX                                  ",
"                        BXBXBXQ O B H M H = ; 3 3 3 2 : v H M H = 3 m C C B B C A : : u BXBX                                  ",
"                          BXBXVX; A M M H = -X-X-X$X+ B H M H n i k k k l u d d h d u =XBXBX                                  ",
"                            BX2X: J A M J 2 hXBXBXdX= 2 B H A - bXBXBXBXBXBXBXBXBXBXBXBXBX                                    ",
"                            BX3X6 2 v B M = iXBXBX7XO | 1 M v $XBXBXBXBXBXBXBXBXBXBXBXBX                                      ",
"                            BXBXMXd w 6 j =XbXBXBX4X} R.1 B - mXBX                                                            ",
"                              BXBXj.B.-XBXBXBXBXMXa W.1 ; = *XBXBX                                                            ",
"                              BXBXs.x.3XBXfXkXNX1Xx. .dXhXfXNXBX                                                              ",
"                              BXBXs.;.dXMXX . u f J.k BXBXBXBXBX                                                              ",
"                              BXBXd.M.3X.Xp o X | O.*XBXBX                                                                    ",
"                              BXBXs.B.&  XQ X . :.8 X jXBX                                                                    ",
"                              BXBXj W.o.t |.=XX r.0 $ bXBX                                                                    ",
"                                BX<X{ 9 .XVXVX;X7.0 jXBXBX                                                                    ",
"                                BXBX1XfXBXBXBXjX0 u MXBX                                                                      ",
"                                BXBXBXBXBX  BXVXg #X*XBXBX                                                                    ",
"                                            BXBX=XQ p VXBXBX                                                                  ",
"                                        BXBXBXBXVXQ lXl <XBXBXBX                                                              ",
"                                      BXBX3X;X4XVX3X<X*X. 1XBXBX                                                              ",
"                                      BX7X. $ o & $ . X . X hXBX                                                              ",
"                                    BXBXl . oXkXX . . . . u NXBX                                                              ",
"                                      BX1X. X & X . i & k MXBXBX                                                              ",
"                                      BXBX<Xi $ i <XBXBXBXBXBX                                                                ",
"                                        BXBXBXBXBXBXBXBXBX                                                                    ",
"                                          BXBXBXBX                                                                            "
};
